<svg width="29" height="29" viewBox="0 0 29 29" fill="none" xmlns="http://www.w3.org/2000/svg">
<circle cx="14.5" cy="14.5" r="14.5" fill="url(#paint0_linear_2001_315)"/>
<path fill-rule="evenodd" clip-rule="evenodd" d="M17.3863 6.92494C17.169 7.01961 16.8975 7.37602 16.8967 7.5676C16.8964 7.64525 16.8102 7.66889 16.5273 7.66889C16.2004 7.66889 16.1332 7.69407 15.9381 7.8895L15.718 8.11018L15.6843 10.0772L15.6506 12.0443L15.4485 11.8756C15.1364 11.6148 14.9783 11.5517 14.638 11.5517C14.3704 11.5517 14.2897 11.5858 14.0947 11.7813C13.896 11.9806 13.8657 12.055 13.8657 12.3451C13.8657 12.7893 13.9992 12.9653 15.2691 14.1959L16.2905 15.1857V19.176V23.1663H16.5599H16.8293L16.827 19.0978C16.8251 15.8905 16.806 14.9958 16.737 14.8711C16.6889 14.7841 16.5157 14.6068 16.3521 14.477C15.7883 14.0298 14.4079 12.6351 14.3668 12.4713C14.3052 12.2251 14.4415 12.0244 14.6703 12.0244C14.8082 12.0244 15.0028 12.1408 15.3475 12.4295C15.6136 12.6524 15.8729 12.8347 15.9237 12.8347C16.1287 12.8347 16.1558 12.5612 16.1558 10.4907C16.1558 8.23618 16.1754 8.10781 16.5196 8.10781C16.8597 8.10781 16.8967 8.25225 16.8967 9.58186V10.8089H17.1324H17.3681V9.18825C17.3681 7.65761 17.3756 7.5601 17.5028 7.43254C17.5769 7.35826 17.683 7.29749 17.7386 7.29749C17.7942 7.29749 17.9002 7.35826 17.9743 7.43254C18.1016 7.5601 18.109 7.65761 18.109 9.18825V10.8089H18.3448H18.5805V9.57011C18.5805 8.45578 18.5929 8.32012 18.7037 8.21957C18.8589 8.07871 19.0783 8.07628 19.2156 8.2139C19.3041 8.3027 19.3214 8.52324 19.3214 9.56444V10.8089H19.5571H19.7929V10.0136C19.7929 9.13848 19.8674 8.91814 20.1633 8.91814C20.5168 8.91814 20.5338 9.03131 20.5338 11.3856C20.5338 13.8665 20.5055 14.0546 20.061 14.5326L19.7929 14.8208V18.9936V23.1663H20.0623H20.3317V19.0803V14.9944L20.5394 14.708C20.9683 14.1163 20.9612 14.1661 20.9902 11.5803C21.0199 8.94083 21.0066 8.84136 20.5883 8.57827C20.4245 8.47523 20.2896 8.44579 20.0791 8.46719C19.8313 8.49245 19.7929 8.47887 19.7929 8.36631C19.7929 7.94345 19.3644 7.60737 18.8751 7.6464C18.6473 7.66457 18.5804 7.64681 18.5802 7.56807C18.5798 7.36995 18.305 7.01793 18.076 6.92204C17.791 6.80258 17.6657 6.80312 17.3863 6.92494ZM10.369 12.739C10.2553 12.835 10.137 13.0097 10.1062 13.1273C10.0547 13.3238 10.0304 13.3394 9.80623 13.3194C9.50442 13.2925 9.13121 13.463 8.9697 13.7015C8.86058 13.8625 8.8457 14.081 8.82718 15.7875L8.8065 17.6936L8.46602 17.4588C7.91978 17.0821 7.3332 17.1727 7.09773 17.6701C6.84448 18.2052 7.03118 18.5334 8.28262 19.7522C8.83782 20.2929 9.32088 20.7354 9.35617 20.7354C9.3945 20.7354 9.42036 21.2258 9.42036 21.9509V23.1663H9.68978H9.9592L9.95684 21.934C9.95515 21.0956 9.92828 20.6555 9.87265 20.5572C9.82765 20.4778 9.66425 20.3074 9.50947 20.1785C8.81202 19.5971 7.66135 18.458 7.56409 18.2525C7.46602 18.0454 7.46609 18.0121 7.56462 17.8614C7.75901 17.5639 8.01226 17.6488 8.63084 18.2192C8.99401 18.554 9.21628 18.5827 9.293 18.3044C9.31866 18.2115 9.34257 17.2059 9.34627 16.0696C9.35254 14.1588 9.36224 13.9952 9.4762 13.8918C9.6363 13.7466 9.77673 13.7504 9.91508 13.9036C10.0102 14.0089 10.0265 14.2071 10.0265 15.2541V16.4812H10.296H10.5654V14.8403C10.5654 13.0859 10.5745 13.0373 10.9022 13.0373C11.2298 13.0373 11.2389 13.0859 11.2389 14.8403V16.4812H11.5083H11.7778V15.2424C11.7778 14.0832 11.7865 13.9956 11.9145 13.8796C12.0229 13.7812 12.0893 13.7689 12.2344 13.82L12.4176 13.8845L12.4359 15.1828L12.4542 16.4812H12.7222H12.9901V15.6386C12.9901 14.8145 12.9938 14.7937 13.1585 14.6855C13.3145 14.583 13.3393 14.583 13.4953 14.6855L13.6637 14.7961V17.1448V19.4933L13.492 19.8386C13.3977 20.0285 13.2461 20.2327 13.1553 20.2923L12.9901 20.4008V21.7836V23.1663H13.2595H13.529V21.9238V20.6814L13.7625 20.3335C13.8909 20.1421 14.0272 19.8732 14.0652 19.7358C14.1066 19.5866 14.1345 18.5172 14.1347 17.0772L14.1351 14.6683L13.9645 14.465C13.7684 14.2314 13.416 14.0927 13.1733 14.1538C13.0233 14.1915 12.9968 14.1661 12.9139 13.9055C12.7823 13.4912 12.4605 13.2821 12.0303 13.3317C11.7226 13.3672 11.7104 13.362 11.7104 13.1962C11.7104 13.0902 11.6222 12.9354 11.4814 12.7942C11.2818 12.594 11.209 12.5646 10.9141 12.5646C10.6486 12.5646 10.5312 12.6021 10.369 12.739Z" fill="white"/>
<defs>
<linearGradient id="paint0_linear_2001_315" x1="14.5" y1="0" x2="14.5" y2="29" gradientUnits="userSpaceOnUse">
<stop offset="0.103023" stop-color="#952FFE"/>
<stop offset="0.443926" stop-color="#C641C6"/>
<stop offset="0.76148" stop-color="#FF676B"/>
</linearGradient>
</defs>
</svg>
